#tb 0: 1/25
0,          0,          0,        1,    38016, 0xb96f1feb
0,          1,          1,        1,    38016, 0xca461abd
0,          2,          2,        1,    38016, 0x578a0c87
0,          3,          3,        1,    38016, 0xb3cc1ecb
0,          4,          4,        1,    38016, 0xd2c84463
0,          5,          5,        1,    38016, 0x815d6363
0,          6,          6,        1,    38016, 0x7cc17319
0,          7,          7,        1,    38016, 0x0f7e8cab
0,          8,          8,        1,    38016, 0x1876abee
0,          9,          9,        1,    38016, 0x8f25bccd
0,         10,         10,        1,    38016, 0xc1c7bb9c
0,         11,         11,        1,    38016, 0xf861bdb5
0,         12,         12,        1,    38016, 0xae1ac352
0,         13,         13,        1,    38016, 0x9b6f990b
0,         14,         14,        1,    38016, 0xa5217121
0,         15,         15,        1,    38016, 0x12ac8367
0,         16,         16,        1,    38016, 0x687f8526
0,         17,         17,        1,    38016, 0x9b009a01
0,         18,         18,        1,    38016, 0x9c629e04
0,         19,         19,        1,    38016, 0xfee5a366
0,         20,         20,        1,    38016, 0x264e9b00
0,         21,         21,        1,    38016, 0xf89f9508
0,         22,         22,        1,    38016, 0x19247145
0,         23,         23,        1,    38016, 0xc4cd41bd
0,         24,         24,        1,    38016, 0x035c2696
0,         25,         25,        1,    38016, 0x22310e7f
0,         26,         26,        1,    38016, 0xdd771898
0,         27,         27,        1,    38016, 0x61522adf
0,         28,         28,        1,    38016, 0x5eee412f
0,         29,         29,        1,    38016, 0x03f05077
0,         30,         30,        1,    38016, 0x69625001
0,         31,         31,        1,    38016, 0x8e025073
0,         32,         32,        1,    38016, 0x37374607
0,         33,         33,        1,    38016, 0xc90547ea
0,         34,         34,        1,    38016, 0xe9eb4193
0,         35,         35,        1,    38016, 0xf7214070
0,         36,         36,        1,    38016, 0xc3ce38de
0,         37,         37,        1,    38016, 0xb99933cb
0,         38,         38,        1,    38016, 0x5ee12b39
0,         39,         39,        1,    38016, 0x13c921be
0,         40,         40,        1,    38016, 0x66341136
0,         41,         41,        1,    38016, 0x97710eef
0,         42,         42,        1,    38016, 0xe5910c52
0,         43,         43,        1,    38016, 0xbf9d0fbb
0,         44,         44,        1,    38016, 0x0405177d
0,         45,         45,        1,    38016, 0x25ec13da
0,         46,         46,        1,    38016, 0xda29f457
0,         47,         47,        1,    38016, 0x8e7dbe67
0,         48,         48,        1,    38016, 0x64809802
0,         49,         49,        1,    38016, 0xbd45731d
0,         50,         50,        1,    38016, 0xf9e75c5b
0,         51,         51,        1,    38016, 0x4509551e
0,         52,         52,        1,    38016, 0xd73b54c9
0,         53,         53,        1,    38016, 0x434d430e
0,         54,         54,        1,    38016, 0xfbd940fe
0,         55,         55,        1,    38016, 0xddb1612a
0,         56,         56,        1,    38016, 0xffec797a
0,         57,         57,        1,    38016, 0x4355aa0c
0,         58,         58,        1,    38016, 0x1776d3e0
0,         59,         59,        1,    38016, 0x7a64dd7f
0,         60,         60,        1,    38016, 0xe619e56c
0,         61,         61,        1,    38016, 0x43b0d8e7
0,         62,         62,        1,    38016, 0x2103caf1
0,         63,         63,        1,    38016, 0x808fbb8d
0,         64,         64,        1,    38016, 0x0654ae1e
0,         65,         65,        1,    38016, 0x8b6da03f
0,         66,         66,        1,    38016, 0x15ee6b73
0,         67,         67,        1,    38016, 0x8ab049c4
0,         68,         68,        1,    38016, 0x7c6d351c
0,         69,         69,        1,    38016, 0xe3fa3794
0,         70,         70,        1,    38016, 0x5b3c581c
0,         71,         71,        1,    38016, 0xf07a70e8
0,         72,         72,        1,    38016, 0xcc378cb4
0,         73,         73,        1,    38016, 0x15f49788
0,         74,         74,        1,    38016, 0x23de74b4
0,         75,         75,        1,    38016, 0x2e842db6
0,         76,         76,        1,    38016, 0xd23cf2b9
0,         77,         77,        1,    38016, 0xfbb7cea3
0,         78,         78,        1,    38016, 0x05039bf0
0,         79,         79,        1,    38016, 0x854d8c6c
0,         80,         80,        1,    38016, 0x7d2770d7
0,         81,         81,        1,    38016, 0x7e5f6374
0,         82,         82,        1,    38016, 0x204753ee
0,         83,         83,        1,    38016, 0x66906f4d
0,         84,         84,        1,    38016, 0xf6ae700b
0,         85,         85,        1,    38016, 0x64438aba
0,         86,         86,        1,    38016, 0xc93aa41f
0,         87,         87,        1,    38016, 0x27bdbdb7
0,         88,         88,        1,    38016, 0x7aceb0a3
0,         89,         89,        1,    38016, 0x751d81bd
0,         90,         90,        1,    38016, 0xa86e3940
0,         91,         91,        1,    38016, 0x9d022dd6
0,         92,         92,        1,    38016, 0x0a484d7c
0,         93,         93,        1,    38016, 0x6d555adb
0,         94,         94,        1,    38016, 0xfe9799e0
0,         95,         95,        1,    38016, 0x245ad49b
0,         96,         96,        1,    38016, 0x6d22e3e3
0,         97,         97,        1,    38016, 0xdffc00df
0,         98,         98,        1,    38016, 0x34ec1984
0,         99,         99,        1,    38016, 0x15172b1a
0,        100,        100,        1,    38016, 0x05d742d8
0,        101,        101,        1,    38016, 0xc94350fc
0,        102,        102,        1,    38016, 0x3af65a84
0,        103,        103,        1,    38016, 0xfbf96492
0,        104,        104,        1,    38016, 0x1c8f6e2e
0,        105,        105,        1,    38016, 0xe41677dc
0,        106,        106,        1,    38016, 0xd36284e1
0,        107,        107,        1,    38016, 0xa5f57f14
0,        108,        108,        1,    38016, 0x6a7d70f4
0,        109,        109,        1,    38016, 0x4c1a584f
0,        110,        110,        1,    38016, 0x4f093dd3
0,        111,        111,        1,    38016, 0x5a1634b3
0,        112,        112,        1,    38016, 0xdd1a29b5
0,        113,        113,        1,    38016, 0x28c81aa3
0,        114,        114,        1,    38016, 0x681a0e29
0,        115,        115,        1,    38016, 0x74110802
0,        116,        116,        1,    38016, 0x468afe8a
0,        117,        117,        1,    38016, 0xfbb609e0
0,        118,        118,        1,    38016, 0x79d60da0
0,        119,        119,        1,    38016, 0x0774036d
0,        120,        120,        1,    38016, 0x904bf22d
0,        121,        121,        1,    38016, 0xddeaedb5
0,        122,        122,        1,    38016, 0x5de1d5af
0,        123,        123,        1,    38016, 0xb9bad4cf
0,        124,        124,        1,    38016, 0x452bcf0e
0,        125,        125,        1,    38016, 0x9ab9cca8
0,        126,        126,        1,    38016, 0x9b77d6ba
0,        127,        127,        1,    38016, 0xb9f5dfaf
0,        128,        128,        1,    38016, 0x7b33fac4
0,        129,        129,        1,    38016, 0x25e41c67
0,        130,        130,        1,    38016, 0x6af749b5
0,        131,        131,        1,    38016, 0xe6576d07
0,        132,        132,        1,    38016, 0x55a49498
0,        133,        133,        1,    38016, 0x3bf4bd93
0,        134,        134,        1,    38016, 0xba65cabb
0,        135,        135,        1,    38016, 0x0c02de64
0,        136,        136,        1,    38016, 0xdb86e742
0,        137,        137,        1,    38016, 0x37acdf69
0,        138,        138,        1,    38016, 0x8c1ea6be
0,        139,        139,        1,    38016, 0x5295739e
0,        140,        140,        1,    38016, 0xb2f85eb7
0,        141,        141,        1,    38016, 0x17394375
0,        142,        142,        1,    38016, 0x8a7f7528
0,        143,        143,        1,    38016, 0x17c3e7a5
0,        144,        144,        1,    38016, 0xbe1763ef
0,        145,        145,        1,    38016, 0x236eab70
0,        146,        146,        1,    38016, 0x4b3e9bbb
0,        147,        147,        1,    38016, 0xc1d664f9
0,        148,        148,        1,    38016, 0xc2300411
0,        149,        149,        1,    38016, 0x1cf2903c
0,        150,        150,        1,    38016, 0xd8783451
0,        151,        151,        1,    38016, 0xf3c8ff31
0,        152,        152,        1,    38016, 0xf6dfd324
0,        153,        153,        1,    38016, 0x7b93b5d0
0,        154,        154,        1,    38016, 0xf246a0f4
0,        155,        155,        1,    38016, 0x5e970b10
0,        156,        156,        1,    38016, 0xcb98878e
0,        157,        157,        1,    38016, 0xc804f169
0,        158,        158,        1,    38016, 0x801fec84
0,        159,        159,        1,    38016, 0xb242ee41
0,        160,        160,        1,    38016, 0xb8a7f3c1
0,        161,        161,        1,    38016, 0x24b10420
0,        162,        162,        1,    38016, 0x4b7601ab
0,        163,        163,        1,    38016, 0x4c30f75a
0,        164,        164,        1,    38016, 0x8e8cf5ae
0,        165,        165,        1,    38016, 0xd94fefd2
0,        166,        166,        1,    38016, 0x31c9c604
0,        167,        167,        1,    38016, 0x09d29f6f
0,        168,        168,        1,    38016, 0xa55e8075
0,        169,        169,        1,    38016, 0x482d53da
0,        170,        170,        1,    38016, 0x957e36f1
0,        171,        171,        1,    38016, 0xcd261153
0,        172,        172,        1,    38016, 0xbf08d284
0,        173,        173,        1,    38016, 0x42957a37
0,        174,        174,        1,    38016, 0x28b73287
0,        175,        175,        1,    38016, 0xe6e33893
0,        176,        176,        1,    38016, 0x7f0e3db5
0,        177,        177,        1,    38016, 0xb80b46a3
0,        178,        178,        1,    38016, 0x1ccca614
0,        179,        179,        1,    38016, 0x531e2dfa
0,        180,        180,        1,    38016, 0x0d95ef09
0,        181,        181,        1,    38016, 0xb631a635
0,        182,        182,        1,    38016, 0x4ed86a94
0,        183,        183,        1,    38016, 0x919832ab
0,        184,        184,        1,    38016, 0x724b60d5
0,        185,        185,        1,    38016, 0x9965f58f
0,        186,        186,        1,    38016, 0x7b04f567
0,        187,        187,        1,    38016, 0x774740d6
0,        188,        188,        1,    38016, 0xf8204134
0,        189,        189,        1,    38016, 0xcbadfa7a
0,        190,        190,        1,    38016, 0x9748728a
0,        191,        191,        1,    38016, 0x973047e7
0,        192,        192,        1,    38016, 0xcc52aa4d
0,        193,        193,        1,    38016, 0x3fa7d81f
0,        194,        194,        1,    38016, 0x7a33eddd
0,        195,        195,        1,    38016, 0xe51ed885
0,        196,        196,        1,    38016, 0xcc93b1a2
0,        197,        197,        1,    38016, 0xf70cab47
0,        198,        198,        1,    38016, 0x983eb17e
0,        199,        199,        1,    38016, 0xdb02d6bb
0,        200,        200,        1,    38016, 0xad99c4f9
0,        201,        201,        1,    38016, 0xd0e5618c
0,        202,        202,        1,    38016, 0x5eb05134
0,        203,        203,        1,    38016, 0x4ce0cf23
0,        204,        204,        1,    38016, 0x70de3edb
0,        205,        205,        1,    38016, 0x3519c858
0,        206,        206,        1,    38016, 0x1a4e785f
0,        207,        207,        1,    38016, 0x8d09b6ee
0,        208,        208,        1,    38016, 0x79b2fd7e
0,        209,        209,        1,    38016, 0xcd5aa9a4
0,        210,        210,        1,    38016, 0x1e1effd2
0,        211,        211,        1,    38016, 0xa1d1b497
0,        212,        212,        1,    38016, 0x5c036e34
0,        213,        213,        1,    38016, 0x937f152b
0,        214,        214,        1,    38016, 0xe434bed9
0,        215,        215,        1,    38016, 0x09eb8913
0,        216,        216,        1,    38016, 0x4d671935
0,        217,        217,        1,    38016, 0x9c62f30c
0,        218,        218,        1,    38016, 0x4d080e9c
0,        219,        219,        1,    38016, 0x7fe23bb4
0,        220,        220,        1,    38016, 0x95399638
0,        221,        221,        1,    38016, 0x6aa41ac2
0,        222,        222,        1,    38016, 0xe748bc32
0,        223,        223,        1,    38016, 0x5fab449b
0,        224,        224,        1,    38016, 0x8798bb84
0,        225,        225,        1,    38016, 0x4e700879
0,        226,        226,        1,    38016, 0x6d794fa4
0,        227,        227,        1,    38016, 0xf40c9e13
0,        228,        228,        1,    38016, 0x92330fdb
0,        229,        229,        1,    38016, 0x558b899a
0,        230,        230,        1,    38016, 0xec2320ed
0,        231,        231,        1,    38016, 0x3179f275
0,        232,        232,        1,    38016, 0x86cfd19d
0,        233,        233,        1,    38016, 0x2c88c48a
0,        234,        234,        1,    38016, 0x0c84b86f
0,        235,        235,        1,    38016, 0x95069c90
0,        236,        236,        1,    38016, 0x82da8061
0,        237,        237,        1,    38016, 0x847f7634
0,        238,        238,        1,    38016, 0x48d46d89
0,        239,        239,        1,    38016, 0x220d81f3
0,        240,        240,        1,    38016, 0x5cbe9a7e
0,        241,        241,        1,    38016, 0xc0e9d5b9
0,        242,        242,        1,    38016, 0xcc26ff97
0,        243,        243,        1,    38016, 0x01332392
0,        244,        244,        1,    38016, 0x44e44439
0,        245,        245,        1,    38016, 0xfe8751ee
0,        246,        246,        1,    38016, 0x010d74a1
0,        247,        247,        1,    38016, 0xbf4a7c2d
0,        248,        248,        1,    38016, 0x77869402
0,        249,        249,        1,    38016, 0x1ae8b176
0,        250,        250,        1,    38016, 0x917cc0b8
0,        251,        251,        1,    38016, 0x3eb6d02a
0,        252,        252,        1,    38016, 0x815ed568
0,        253,        253,        1,    38016, 0xcd6bcd54
0,        254,        254,        1,    38016, 0xd3e5bfcd
0,        255,        255,        1,    38016, 0x95e2bd36
0,        256,        256,        1,    38016, 0x102ca664
0,        257,        257,        1,    38016, 0x95c59672
0,        258,        258,        1,    38016, 0x1d5b8845
0,        259,        259,        1,    38016, 0x3d988a4d
0,        260,        260,        1,    38016, 0x4139a121
0,        261,        261,        1,    38016, 0x9eeca508
0,        262,        262,        1,    38016, 0xf9f2a9cc
0,        263,        263,        1,    38016, 0x9420b177
0,        264,        264,        1,    38016, 0x13edadd7
0,        265,        265,        1,    38016, 0x3d18a416
0,        266,        266,        1,    38016, 0x88b09166
0,        267,        267,        1,    38016, 0x2e1c939c
0,        268,        268,        1,    38016, 0x4f8381c3
0,        269,        269,        1,    38016, 0x36647382
0,        270,        270,        1,    38016, 0x26a272c1
0,        271,        271,        1,    38016, 0x9a5a7cc8
0,        272,        272,        1,    38016, 0xc2fc7734
0,        273,        273,        1,    38016, 0xd21b7e6c
0,        274,        274,        1,    38016, 0x948c77a0
0,        275,        275,        1,    38016, 0x179e7d1a
0,        276,        276,        1,    38016, 0xbfd17561
0,        277,        277,        1,    38016, 0x30f97511
0,        278,        278,        1,    38016, 0x893e6f54
0,        279,        279,        1,    38016, 0x76036ecb
0,        280,        280,        1,    38016, 0x3f0e6966
0,        281,        281,        1,    38016, 0xed946afe
0,        282,        282,        1,    38016, 0x2c2676de
0,        283,        283,        1,    38016, 0x7b348c94
0,        284,        284,        1,    38016, 0x77f5afc8
0,        285,        285,        1,    38016, 0xdb54cea0
0,        286,        286,        1,    38016, 0xc9fed974
0,        287,        287,        1,    38016, 0x04bbe454
0,        288,        288,        1,    38016, 0x7320ffb9
0,        289,        289,        1,    38016, 0x841b199a
0,        290,        290,        1,    38016, 0x7d792ee3
0,        291,        291,        1,    38016, 0x5ce33607
0,        292,        292,        1,    38016, 0xec52432e
0,        293,        293,        1,    38016, 0xe6a04efe
0,        294,        294,        1,    38016, 0xc7b45cef
0,        295,        295,        1,    38016, 0xdbe76bf9
0,        296,        296,        1,    38016, 0xd57f7e18
0,        297,        297,        1,    38016, 0x8e03915d
0,        298,        298,        1,    38016, 0x30779ec6
0,        299,        299,        1,    38016, 0x89b1aa42
